<svg id="Layer_1" data-name="Layer 1" xmlns="http://www.w3.org/2000/svg" viewBox="0 0 1480 800"><title>final</title><path d="M249.7,602.5H83.1a8.2,8.2,0,0,0-8.1,8.1V742.9a8.2,8.2,0,0,0,8.1,8.1H249.7a8.2,8.2,0,0,0,8.1-8.1V610.6A8.2,8.2,0,0,0,249.7,602.5Zm-.2,140.2-166.2.2-.2-99.6H249.5Zm-106-117a5.8,5.8,0,1,1-11.5,0,5.8,5.8,0,0,1,11.5,0Zm-17,0a5.8,5.8,0,1,1-11.5,0,5.8,5.8,0,0,1,11.5,0Zm-17,0a5.8,5.8,0,1,1-11.5,0,5.8,5.8,0,0,1,11.5,0Zm-.7,81.9a2.5,2.5,0,0,1,2.5-2.5h45.5a2.5,2.5,0,1,1,0,5H111.3A2.5,2.5,0,0,1,108.8,707.6Zm0-40.5a2.5,2.5,0,0,1,2.5-2.5h74.3a2.5,2.5,0,1,1,0,4.9H111.3A2.5,2.5,0,0,1,108.8,667.1Zm0,20.1a2.5,2.5,0,0,1,2.5-2.5h74.3a2.5,2.5,0,1,1,0,5H111.3A2.5,2.5,0,0,1,108.8,687.2Z" style="fill:#36393a"/><path d="M1395.8,70.9H1189.6a7.3,7.3,0,0,0-7.3,7.3v70.5a7.3,7.3,0,0,0,7.3,7.3h206.2a7.3,7.3,0,0,0,7.2-7.3V78.2A7.3,7.3,0,0,0,1395.8,70.9Zm-1.1,76.8H1190.6V79.2h204.1Zm-104.5-21V100.1a2.5,2.5,0,0,1,2.5-2.4,2.5,2.5,0,0,1,2.5,2.4v26.6a2.5,2.5,0,0,1-2.5,2.5A2.5,2.5,0,0,1,1290.2,126.7Zm18.5,0V100.1a2.5,2.5,0,0,1,5,0v26.6a2.5,2.5,0,1,1-5,0Zm18.5,0V100.1a2.5,2.5,0,0,1,5,0v26.6a2.5,2.5,0,1,1-5,0Zm18.5,0V100.1a2.5,2.5,0,0,1,5,0v26.6a2.5,2.5,0,1,1-5,0Zm-129.6,0V100.1a2.5,2.5,0,0,1,5,0v26.6a2.5,2.5,0,1,1-5,0Zm18.5,0V100.1a2.5,2.5,0,0,1,2.5-2.4,2.5,2.5,0,0,1,2.5,2.4v26.6a2.5,2.5,0,0,1-2.5,2.5A2.5,2.5,0,0,1,1234.6,126.7Zm18.6,0V100.1a2.5,2.5,0,0,1,4.9,0v26.6a2.5,2.5,0,1,1-4.9,0Zm18.5,0V100.1a2.5,2.5,0,0,1,4.9,0v26.6a2.5,2.5,0,1,1-4.9,0Zm92.5,0V100.1a2.5,2.5,0,0,1,5,0v26.6a2.5,2.5,0,1,1-5,0Zm5.5,40.9a4.1,4.1,0,0,1-4.1,4.1H1219.8a4.1,4.1,0,1,1,0-8.2h145.8A4.1,4.1,0,0,1,1369.7,167.6Z" style="fill:#36393a"/><path d="M258.5,173.8V63.7a8.7,8.7,0,0,0-8.7-8.7H83.9a8.7,8.7,0,0,0-8.7,8.7V173.8H63.6c1,7.8,6.5,13.9,13,13.9H256.1c6.6,0,12-6.1,13.1-13.9ZM85.1,64.9H248.5V173.8H85.1Z" style="fill:#36393a"/><path d="M510.4,50.2,509,58.7h-3.8l2.2-8.5Zm6.6,0-1.3,8.5h-3.8l2.1-8.5Z" style="fill:#36393a"/><path d="M528.8,72.8H525l-6.1-22.6h4.2L527,67.3h.2l4.5-17.1h3.5l4.6,17.1h.1l3.9-17.1H548l-6,22.6h-3.8l-4.7-16.4h-.1Z" style="fill:#36393a"/><path d="M550.4,50.2h3.8V59h.1a5.3,5.3,0,0,1,5.2-3.1c3.7,0,5.8,2.4,5.8,6.2V72.8h-3.9V62.9c0-2.3-1.1-3.7-3.4-3.7s-3.7,1.6-3.7,4v9.6h-3.9Z" style="fill:#36393a"/><path d="M567.8,68c0-2.9,2.2-4.7,6.3-4.9l4.4-.3V61.6c0-1.7-1.2-2.7-3.1-2.7s-3.1.9-3.3,2.3h-3.6c.2-3.1,2.8-5.3,7-5.3s6.8,2.1,6.8,5.5V72.8h-3.8V70.1h0a6,6,0,0,1-5.2,2.9C570.1,73,567.8,71,567.8,68Zm10.7-1.4V65.4l-3.9.2c-1.8.1-2.9,1-2.9,2.3s1.1,2.2,2.8,2.2A3.7,3.7,0,0,0,578.5,66.6Z" style="fill:#36393a"/><path d="M590.4,52.3v3.9h3.1v3h-3.1v8.6c0,1.4.6,2,2,2h1.1v3h-2c-3.6,0-5-1.2-5-4.4V59.2h-2.4v-3h2.4V52.3Z" style="fill:#36393a"/><path d="M596.1,58.7l1.4-8.5h3.8l-2.2,8.5Z" style="fill:#36393a"/><path d="M609,55.9c4,0,6.5,2.1,6.6,5.3H612a2.7,2.7,0,0,0-3-2.5c-1.8,0-2.9.8-2.9,2s.7,1.7,2.4,2l2.8.7c3.4.7,4.7,2,4.7,4.5s-2.8,5.2-6.9,5.2-6.9-2.1-7.2-5.3h3.8c.3,1.6,1.4,2.4,3.4,2.4s3.1-.7,3.1-2-.6-1.5-2.4-1.9l-2.7-.6q-4.8-1-4.8-4.8C602.3,57.9,605,55.9,609,55.9Z" style="fill:#36393a"/><path d="M629.9,52.3v3.9H633v3h-3.1v8.6c0,1.4.6,2,2,2H633v3h-2c-3.6,0-5-1.2-5-4.4V59.2h-2.4v-3H626V52.3Z" style="fill:#36393a"/><path d="M635.8,50.2h3.8V59h.1a5.3,5.3,0,0,1,5.2-3.1c3.7,0,5.8,2.4,5.8,6.2V72.8h-3.9V62.9c0-2.3-1.1-3.7-3.4-3.7a3.7,3.7,0,0,0-3.8,4v9.6h-3.8Z" style="fill:#36393a"/><path d="M668.4,67.8c-.5,3.1-3.4,5.3-7.3,5.3s-8-3.3-8-8.6,3.1-8.6,7.8-8.6,7.7,3.2,7.7,8.3v1.2H657v.3a4,4,0,0,0,4.2,4.4,3.5,3.5,0,0,0,3.6-2.3ZM657,62.9h7.8c-.1-2.4-1.6-4-3.8-4A4,4,0,0,0,657,62.9Z" style="fill:#36393a"/><path d="M677.9,72.8V50.2h4V72.8Z" style="fill:#36393a"/><path d="M694.6,50.2a7.2,7.2,0,0,1,7.6,7.6c0,4.5-3.2,7.5-7.7,7.5h-4.6v7.5h-4V50.2Zm-4.7,11.9h3.7c2.9,0,4.5-1.6,4.5-4.3s-1.6-4.3-4.5-4.3h-3.7Z" style="fill:#36393a"/><path d="M712.3,59.2H710v-3h2.3V54.8c0-3.2,1.5-4.8,5.1-4.8l2.1.2v2.7h-1.3a1.9,1.9,0,0,0-2.1,2.1v1.3h3.3v3h-3.2V72.8h-3.9Z" style="fill:#36393a"/><path d="M720.7,64.5c0-5.4,3.2-8.6,8-8.6s8,3.2,8,8.6-3.1,8.6-8,8.6S720.7,69.9,720.7,64.5Zm12.1,0c0-3.5-1.6-5.6-4.1-5.6s-4,2.1-4,5.6,1.5,5.5,4,5.5S732.8,68,732.8,64.5Z" style="fill:#36393a"/><path d="M739.2,56.2H743v2.9h0a4.1,4.1,0,0,1,4-3.2l1.2.2v3.5l-1.5-.2a3.4,3.4,0,0,0-3.6,3.7v9.7h-3.9Z" style="fill:#36393a"/><path d="M771.2,67.8c-.4,3.1-3.4,5.3-7.3,5.3s-7.9-3.3-7.9-8.6,3-8.6,7.8-8.6,7.6,3.2,7.6,8.3v1.2H759.8v.3a4.1,4.1,0,0,0,4.2,4.4,3.5,3.5,0,0,0,3.6-2.3Zm-11.3-4.9h7.7c-.1-2.4-1.6-4-3.8-4A3.9,3.9,0,0,0,759.9,62.9Z" style="fill:#36393a"/><path d="M780,66.8l-3.4,6h-4.1l5.3-8.3-5.3-8.3h4.4l3.3,5.8h.1l3.3-5.8h4.3l-5.4,8.2,5.3,8.4h-4.3l-3.4-6Z" style="fill:#36393a"/><path d="M788.9,68c0-2.9,2.3-4.7,6.3-4.9l4.4-.3V61.6c0-1.7-1.2-2.7-3.1-2.7a3.1,3.1,0,0,0-3.3,2.3h-3.6c.2-3.1,2.8-5.3,7.1-5.3s6.7,2.1,6.7,5.5V72.8h-3.7V70.1h-.1a5.7,5.7,0,0,1-5.1,2.9C791.2,73,788.9,71,788.9,68Zm10.7-1.4V65.4l-3.8.2c-1.9.1-3,1-3,2.3s1.1,2.2,2.8,2.2A3.7,3.7,0,0,0,799.6,66.6Z" style="fill:#36393a"/><path d="M806.6,56.2h3.7v2.9h.1a4.8,4.8,0,0,1,4.7-3.2,4.5,4.5,0,0,1,4.6,3.3h.1a5.4,5.4,0,0,1,5.2-3.3,5.2,5.2,0,0,1,5.4,5.5V72.8h-3.9V62.4c0-2.1-1.1-3.2-3-3.2a3,3,0,0,0-3.1,3.3V72.8h-3.8V62.2a2.7,2.7,0,0,0-3-3,3.1,3.1,0,0,0-3.1,3.4V72.8h-3.9Z" style="fill:#36393a"/><path d="M849.5,64.5c0,5.3-2.7,8.5-6.9,8.5a5.3,5.3,0,0,1-5.1-3h-.1v8.2h-3.9v-22h3.8v2.9h.1a5.5,5.5,0,0,1,5.2-3.2C846.8,55.9,849.5,59.2,849.5,64.5Zm-4,0c0-3.3-1.6-5.4-4.1-5.4s-4,2.2-4.1,5.4,1.7,5.3,4.1,5.3S845.5,67.8,845.5,64.5Z" style="fill:#36393a"/><path d="M852.1,50.2H856V72.8h-3.9Z" style="fill:#36393a"/><path d="M873.9,67.8c-.5,3.1-3.4,5.3-7.4,5.3s-7.9-3.3-7.9-8.6,3-8.6,7.8-8.6,7.6,3.2,7.6,8.3v1.2H862.5v.3c0,2.6,1.6,4.4,4.1,4.4a3.5,3.5,0,0,0,3.6-2.3Zm-11.4-4.9h7.7c-.1-2.4-1.6-4-3.8-4A3.9,3.9,0,0,0,862.5,62.9Z" style="fill:#36393a"/><path d="M877,70.7a2.3,2.3,0,1,1,2.2,2.2A2.2,2.2,0,0,1,877,70.7Z" style="fill:#36393a"/><path d="M895.3,62.1a3.5,3.5,0,0,0-3.6-3.1c-2.5,0-4.1,2.1-4.1,5.5s1.6,5.4,4.1,5.4a3.4,3.4,0,0,0,3.6-3H899c-.3,3.8-3.2,6.2-7.4,6.2s-7.9-3.2-7.9-8.6,3.1-8.6,7.9-8.6,7.1,2.7,7.4,6.2Z" style="fill:#36393a"/><path d="M900.6,64.5c0-5.4,3.2-8.6,8-8.6s8,3.2,8,8.6-3.1,8.6-8,8.6S900.6,69.9,900.6,64.5Zm12.1,0c0-3.5-1.6-5.6-4.1-5.6s-4.1,2.1-4.1,5.6,1.6,5.5,4.1,5.5S912.7,68,912.7,64.5Z" style="fill:#36393a"/><path d="M919.1,56.2h3.8v2.9h0a5,5,0,0,1,4.8-3.2,4.5,4.5,0,0,1,4.6,3.3h.1a5.3,5.3,0,0,1,5.1-3.3,5.1,5.1,0,0,1,5.4,5.5V72.8H939V62.4c0-2.1-1-3.2-2.9-3.2a3.1,3.1,0,0,0-3.2,3.3V72.8h-3.8V62.2a2.7,2.7,0,0,0-2.9-3,3.2,3.2,0,0,0-3.2,3.4V72.8h-3.9Z" style="fill:#36393a"/><path d="M952.6,50c4.3,0,7.2,2.5,7.2,5.9s-1.2,4.1-3.4,5.4-2.6,2-2.6,3.5v.9h-3.6V64.6c-.2-2.3.7-3.7,2.9-5s2.6-2,2.6-3.5-1.3-2.9-3.3-2.9a3.2,3.2,0,0,0-3.4,3.2h-3.7C945.4,52.7,948,50,952.6,50Zm-2.8,20.9a2.2,2.2,0,0,1,2.2-2.2,2.2,2.2,0,0,1,2.3,2.2,2.2,2.2,0,0,1-2.3,2.2A2.2,2.2,0,0,1,949.8,70.9Z" style="fill:#36393a"/><path d="M963,58.7l1.3-8.5h3.8L966,58.7Zm6.6,0,1.4-8.5h3.8l-2.2,8.5Z" style="fill:#36393a"/><path d="M87.9,529.8c-.5,3.1-3.4,5.3-7.3,5.3s-8-3.3-8-8.6,3-8.6,7.8-8.6,7.6,3.2,7.6,8.3v1.2H76.5v.3c0,2.6,1.6,4.4,4.1,4.4a3.5,3.5,0,0,0,3.6-2.3Zm-11.4-4.9h7.7a3.7,3.7,0,0,0-3.8-4C78.2,520.9,76.7,522.5,76.5,524.9Z" style="fill:#36393a"/><path d="M96.7,528.8l-3.5,6H89.1l5.3-8.3-5.3-8.3h4.4l3.4,5.8h0l3.3-5.8h4.3l-5.3,8.2,5.2,8.4h-4.2l-3.5-6Z" style="fill:#36393a"/><path d="M105.6,530c0-2.9,2.2-4.7,6.3-4.9l4.3-.3v-1.2c0-1.7-1.1-2.7-3.1-2.7s-3,.9-3.2,2.3h-3.6c.1-3.1,2.8-5.3,7-5.3s6.8,2.1,6.8,5.5v11.4h-3.8v-2.7h-.1a5.7,5.7,0,0,1-5.1,2.9C107.9,535,105.6,533,105.6,530Zm10.6-1.4v-1.2l-3.8.2c-1.9.1-3,1-3,2.3s1.2,2.2,2.9,2.2A3.6,3.6,0,0,0,116.2,528.6Z" style="fill:#36393a"/><path d="M123.2,518.2h3.7v2.9h.1a4.9,4.9,0,0,1,4.7-3.2,4.6,4.6,0,0,1,4.7,3.3h0a5.4,5.4,0,0,1,5.2-3.3,5.1,5.1,0,0,1,5.4,5.5v11.4h-3.9V524.4c0-2.1-1-3.2-2.9-3.2a3.1,3.1,0,0,0-3.2,3.3v10.3h-3.8V524.2a2.7,2.7,0,0,0-2.9-3,3.2,3.2,0,0,0-3.2,3.4v10.2h-3.9Z" style="fill:#36393a"/><path d="M166.1,526.5c0,5.3-2.7,8.5-6.8,8.5a5.5,5.5,0,0,1-5.2-3H154v8.2h-3.9v-22h3.8v2.9h.1a5.5,5.5,0,0,1,5.2-3.2C163.4,517.9,166.1,521.2,166.1,526.5Zm-4,0c0-3.3-1.6-5.4-4.1-5.4s-4,2.2-4,5.4,1.6,5.3,4,5.3S162.1,529.8,162.1,526.5Z" style="fill:#36393a"/><path d="M168.7,512.2h3.9v22.6h-3.9Z" style="fill:#36393a"/><path d="M190.5,529.8c-.5,3.1-3.4,5.3-7.3,5.3s-8-3.3-8-8.6,3-8.6,7.8-8.6,7.7,3.2,7.7,8.3v1.2H179.1v.3a4,4,0,0,0,4.2,4.4,3.6,3.6,0,0,0,3.6-2.3Zm-11.4-4.9h7.8a3.8,3.8,0,0,0-3.9-4C180.9,520.9,179.3,522.5,179.1,524.9Z" style="fill:#36393a"/><path d="M193.6,532.7a2.3,2.3,0,1,1,4.5,0,2.2,2.2,0,0,1-2.2,2.2A2.2,2.2,0,0,1,193.6,532.7Z" style="fill:#36393a"/><path d="M211.9,524.1a3.4,3.4,0,0,0-3.6-3.1c-2.5,0-4,2.1-4,5.5s1.6,5.4,4,5.4a3.4,3.4,0,0,0,3.6-3h3.7c-.3,3.8-3.2,6.2-7.3,6.2s-8-3.2-8-8.6,3.1-8.6,7.9-8.6,7.1,2.7,7.4,6.2Z" style="fill:#36393a"/><path d="M217.2,526.5c0-5.4,3.2-8.6,8-8.6s8.1,3.2,8.1,8.6-3.2,8.6-8.1,8.6S217.2,531.9,217.2,526.5Zm12.1,0c0-3.5-1.6-5.6-4.1-5.6s-4,2.1-4,5.6,1.6,5.5,4,5.5S229.3,530,229.3,526.5Z" style="fill:#36393a"/><path d="M235.8,518.2h3.7v2.9h.1a4.8,4.8,0,0,1,4.7-3.2,4.5,4.5,0,0,1,4.6,3.3h.1a5.4,5.4,0,0,1,5.2-3.3,5.2,5.2,0,0,1,5.4,5.5v11.4h-3.9V524.4c0-2.1-1.1-3.2-3-3.2a3,3,0,0,0-3.1,3.3v10.3h-3.8V524.2a2.7,2.7,0,0,0-3-3,3.1,3.1,0,0,0-3.1,3.4v10.2h-3.9Z" style="fill:#36393a"/><path d="M11.5,573.2V550.6h4v22.6Z" style="fill:#36393a"/><path d="M28.3,550.6a7.2,7.2,0,0,1,7.5,7.6c0,4.5-3.2,7.5-7.7,7.5H23.5v7.5h-4V550.6Zm-4.8,11.9h3.7c2.9,0,4.6-1.6,4.6-4.3s-1.7-4.3-4.6-4.3H23.5Z" style="fill:#36393a"/><path d="M44.1,568.4c0-2.9,2.3-4.7,6.3-4.9l4.4-.3V562c0-1.7-1.2-2.7-3.1-2.7s-3,.9-3.2,2.3H44.8c.2-3.1,2.9-5.3,7.1-5.3s6.8,2.1,6.8,5.5v11.4H54.9v-2.7h-.1a5.7,5.7,0,0,1-5.1,2.9C46.5,573.4,44.1,571.4,44.1,568.4ZM54.8,567v-1.2L51,566c-1.9.1-3,1-3,2.3s1.2,2.2,2.8,2.2A3.7,3.7,0,0,0,54.8,567Z" style="fill:#36393a"/><path d="M61.1,564.9c0-5.3,2.7-8.6,6.9-8.6a5.7,5.7,0,0,1,5.1,3.1h.1v-8.8h3.9v22.6H73.3v-2.9h-.1a5.5,5.5,0,0,1-5.2,3.1C63.8,573.4,61.1,570.1,61.1,564.9Zm4,0c0,3.3,1.5,5.3,4,5.3s4.1-2,4.1-5.3-1.6-5.4-4.1-5.4S65.1,561.6,65.1,564.9Z" style="fill:#36393a"/><path d="M79.7,564.9c0-5.3,2.7-8.6,6.8-8.6a5.7,5.7,0,0,1,5.2,3.1h.1v-8.8h3.8v22.6H91.8v-2.9h0a5.6,5.6,0,0,1-5.3,3.1C82.4,573.4,79.7,570.1,79.7,564.9Zm3.9,0c0,3.3,1.6,5.3,4.1,5.3s4.1-2,4.1-5.3-1.6-5.4-4.1-5.4S83.6,561.6,83.6,564.9Z" style="fill:#36393a"/><path d="M98.9,556.6h3.7v2.9h.1a4,4,0,0,1,4-3.2l1.2.2V560l-1.6-.2c-2.2,0-3.5,1.4-3.5,3.7v9.7H98.9Z" style="fill:#36393a"/><path d="M123.9,568.2c-.5,3.1-3.4,5.3-7.3,5.3s-8-3.3-8-8.6,3-8.6,7.8-8.6,7.6,3.2,7.6,8.3v1.2H112.5v.3c0,2.6,1.6,4.4,4.1,4.4a3.6,3.6,0,0,0,3.7-2.3Zm-11.4-4.9h7.7a3.7,3.7,0,0,0-3.8-4C114.2,559.3,112.7,560.9,112.5,563.3Z" style="fill:#36393a"/><path d="M132.9,556.3c4,0,6.6,2.1,6.7,5.3H136a2.8,2.8,0,0,0-3.1-2.5c-1.7,0-2.9.8-2.9,2s.7,1.7,2.5,2l2.7.7c3.4.7,4.8,2,4.8,4.5s-2.9,5.2-7,5.2-6.9-2.1-7.2-5.3h3.9q.5,2.4,3.3,2.4c1.9,0,3.1-.7,3.1-2s-.6-1.5-2.3-1.9l-2.8-.6c-3.2-.7-4.7-2.3-4.7-4.8S128.9,556.3,132.9,556.3Z" style="fill:#36393a"/><path d="M148.8,556.3c4,0,6.6,2.1,6.7,5.3h-3.7a2.7,2.7,0,0,0-3-2.5c-1.7,0-2.9.8-2.9,2s.7,1.7,2.4,2l2.8.7c3.4.7,4.8,2,4.8,4.5s-2.9,5.2-7,5.2-6.9-2.1-7.2-5.3h3.8c.3,1.6,1.5,2.4,3.4,2.4s3.1-.7,3.1-2-.6-1.5-2.3-1.9l-2.8-.6q-4.8-1.1-4.8-4.8C142.1,558.3,144.8,556.3,148.8,556.3Z" style="fill:#36393a"/><path d="M158.8,559.4a2.2,2.2,0,0,1,2.2-2.2,2.3,2.3,0,1,1-2.2,2.2Zm0,11.7a2.3,2.3,0,1,1,2.2,2.2A2.2,2.2,0,0,1,158.8,571.1Z" style="fill:#36393a"/><path d="M179.1,554.5H179l-5.8,4v-3.7l5.9-4.2h4v22.6h-4Z" style="fill:#36393a"/><path d="M188.1,567.6h4c.6,1.8,2.1,2.7,4.2,2.7s5.2-3.3,5.2-8.5h0c-.9,2.2-3.2,3.6-6.2,3.6a7.1,7.1,0,0,1-7.4-7.4c0-4.6,3.5-7.9,8.4-7.9s9.1,3.2,9.1,11.5-3.4,12-9.2,12C192,573.6,188.7,571.2,188.1,567.6Zm12.7-9.6a4.5,4.5,0,0,0-9-.1,4.5,4.5,0,0,0,9,.1Z" style="fill:#36393a"/><path d="M216,550.2c4.6,0,7.7,2.8,7.7,6.4s-1.3,4.4-5.2,8.3l-5,4.9H224v3.3H208.2v-2.8l8-7.8c2.9-2.9,3.6-4,3.6-5.7a3.5,3.5,0,0,0-3.8-3.5,4,4,0,0,0-4.2,3.9H208C208,553.1,211.3,550.2,216,550.2Z" style="fill:#36393a"/><path d="M227.4,571.1a2.3,2.3,0,1,1,4.5,0,2.2,2.2,0,0,1-2.2,2.2A2.2,2.2,0,0,1,227.4,571.1Z" style="fill:#36393a"/><path d="M235,561.9c0-7.2,3.4-11.7,8.9-11.7s8.9,4.4,8.9,11.6-3.3,11.8-8.9,11.8S235,569.1,235,561.9Zm13.7,0c0-5.3-1.8-8.4-4.8-8.4s-4.8,3.1-4.8,8.3,1.7,8.5,4.8,8.5S248.7,567.2,248.7,561.9Z" style="fill:#36393a"/><path d="M255.4,571.1a2.3,2.3,0,1,1,4.5,0,2.2,2.2,0,0,1-2.2,2.2A2.2,2.2,0,0,1,255.4,571.1Z" style="fill:#36393a"/><path d="M263,561.9c0-7.2,3.4-11.7,8.9-11.7s8.9,4.4,8.9,11.6-3.3,11.8-8.9,11.8S263,569.1,263,561.9Zm13.7,0c0-5.3-1.8-8.4-4.8-8.4s-4.8,3.1-4.8,8.3,1.7,8.5,4.8,8.5S276.7,567.2,276.7,561.9Z" style="fill:#36393a"/><path d="M283.4,571.1a2.3,2.3,0,1,1,4.5,0,2.2,2.2,0,0,1-2.2,2.2A2.2,2.2,0,0,1,283.4,571.1Z" style="fill:#36393a"/><path d="M295.6,554.5h-.1l-5.8,4v-3.7l5.9-4.2h4v22.6h-4Z" style="fill:#36393a"/><path d="M304.5,562.1c0-7.5,3.5-12,9.2-12s7.4,2.5,8.1,6.1h-4a4,4,0,0,0-4.1-2.8c-3.5,0-5.3,3.3-5.3,8.6h.1a6.4,6.4,0,0,1,6.2-3.7,7.2,7.2,0,0,1,7.4,7.4c0,4.6-3.6,7.9-8.5,7.9S304.5,570.1,304.5,562.1Zm13.6,3.8a4.5,4.5,0,0,0-9-.1,4.5,4.5,0,0,0,4.5,4.5A4.4,4.4,0,0,0,318.1,565.9Z" style="fill:#36393a"/><path d="M585.8,140.2l-1.4,8.5h-3.8l2.2-8.5Zm6.6,0-1.3,8.5h-3.8l2.1-8.5Z" style="fill:#398557"/><path d="M601.8,144.1h-.1l-5.8,4v-3.7l5.8-4.2h4v22.6h-3.9Z" style="fill:#398557"/><path d="M610.8,157.2h4c.5,1.8,2.1,2.7,4.1,2.7,3.6,0,5.3-3.3,5.3-8.5h-.1c-.9,2.2-3.2,3.6-6.1,3.6a7.2,7.2,0,0,1-7.5-7.4c0-4.6,3.6-7.9,8.4-7.9s9.2,3.2,9.2,11.5-3.5,12-9.2,12C614.7,163.2,611.4,160.8,610.8,157.2Zm12.7-9.6a4.5,4.5,0,0,0-9-.1,4.5,4.5,0,0,0,9,.1Z" style="fill:#398557"/><path d="M638.7,139.8c4.6,0,7.7,2.8,7.7,6.4s-1.3,4.4-5.3,8.3l-4.9,4.9h10.5v3.3H630.9V160l7.9-7.8c3-2.9,3.6-4,3.6-5.7a3.5,3.5,0,0,0-3.7-3.5,4.1,4.1,0,0,0-4.3,3.9h-3.8C630.6,142.7,634,139.8,638.7,139.8Z" style="fill:#398557"/><path d="M650.1,160.7a2.3,2.3,0,1,1,4.5,0,2.2,2.2,0,0,1-2.2,2.2A2.2,2.2,0,0,1,650.1,160.7Z" style="fill:#398557"/><path d="M657.7,151.5c0-7.2,3.3-11.7,8.9-11.7s8.8,4.4,8.8,11.6-3.3,11.8-8.8,11.8S657.7,158.7,657.7,151.5Zm13.7,0c0-5.3-1.8-8.4-4.8-8.4s-4.8,3.1-4.8,8.3,1.7,8.5,4.8,8.5S671.4,156.8,671.4,151.5Z" style="fill:#398557"/><path d="M678.1,160.7a2.3,2.3,0,1,1,4.5,0,2.2,2.2,0,0,1-2.2,2.2A2.2,2.2,0,0,1,678.1,160.7Z" style="fill:#398557"/><path d="M685.7,151.5c0-7.2,3.3-11.7,8.9-11.7s8.8,4.4,8.8,11.6-3.3,11.8-8.8,11.8S685.7,158.7,685.7,151.5Zm13.7,0c0-5.3-1.8-8.4-4.8-8.4s-4.8,3.1-4.8,8.3,1.7,8.5,4.8,8.5S699.4,156.8,699.4,151.5Z" style="fill:#398557"/><path d="M706.1,160.7a2.3,2.3,0,1,1,4.5,0,2.2,2.2,0,0,1-2.2,2.2A2.2,2.2,0,0,1,706.1,160.7Z" style="fill:#398557"/><path d="M718.3,144.1h-.1l-5.8,4v-3.7l5.9-4.2h3.9v22.6h-3.9Z" style="fill:#398557"/><path d="M727.2,151.7c0-7.5,3.4-12,9.2-12,4.2,0,7.4,2.5,8,6.1h-4a3.8,3.8,0,0,0-4-2.8c-3.5,0-5.3,3.3-5.3,8.6h0a6.5,6.5,0,0,1,6.2-3.7,7.1,7.1,0,0,1,7.4,7.4c0,4.6-3.5,7.9-8.4,7.9S727.2,159.7,727.2,151.7Zm13.6,3.8a4.3,4.3,0,0,0-4.5-4.4,4.3,4.3,0,0,0-4.6,4.3,4.5,4.5,0,0,0,4.5,4.5A4.4,4.4,0,0,0,740.8,155.5Z" style="fill:#398557"/><path d="M747.8,148.7l1.3-8.5h3.8l-2.1,8.5Zm6.6,0,1.4-8.5h3.8l-2.2,8.5Z" style="fill:#398557"/><path d="M775.4,140.2h3.5c-2.2,2.7-4,8.5-4,13.7s1.8,11,4,13.7h-3.5c-3.1-3.8-4.5-8.2-4.5-13.7S772.3,144,775.4,140.2Z" style="fill:#398557"/><path d="M780.7,151.5c0-7.2,4.1-11.7,10.5-11.7s9.2,3.3,9.7,8.1H797a5.7,5.7,0,0,0-5.8-4.6c-3.8,0-6.3,3.1-6.3,8.2s2.4,8.2,6.3,8.2,5.2-1.6,5.8-4.3h3.9c-.7,4.8-4.3,7.7-9.7,7.7S780.7,158.7,780.7,151.5Z" style="fill:#398557"/><path d="M802.9,158c0-2.9,2.3-4.7,6.3-4.9l4.4-.3v-1.2c0-1.7-1.2-2.7-3.1-2.7s-3,.9-3.3,2.3h-3.6c.2-3.1,2.8-5.3,7-5.3s6.8,2.1,6.8,5.5v11.4h-3.7v-2.7h-.1a5.9,5.9,0,0,1-5.2,2.9C805.2,163,802.9,161,802.9,158Zm10.7-1.4v-1.2l-3.9.2c-1.8.1-2.9,1-2.9,2.3s1.1,2.2,2.8,2.2A3.7,3.7,0,0,0,813.6,156.6Z" style="fill:#398557"/><path d="M831.5,152.1a3.6,3.6,0,0,0-3.7-3.1c-2.4,0-4,2.1-4,5.5s1.6,5.4,4.1,5.4a3.5,3.5,0,0,0,3.6-3h3.6c-.3,3.8-3.1,6.2-7.3,6.2s-7.9-3.2-7.9-8.6,3.1-8.6,7.9-8.6,7.1,2.7,7.3,6.2Z" style="fill:#398557"/><path d="M837.6,140.2h3.8V149h.1a5.3,5.3,0,0,1,5.2-3.1c3.7,0,5.8,2.4,5.8,6.2v10.7h-3.9v-9.9c0-2.3-1.1-3.7-3.4-3.7s-3.7,1.6-3.7,4v9.6h-3.9Z" style="fill:#398557"/><path d="M870.2,157.8c-.5,3.1-3.4,5.3-7.3,5.3s-8-3.3-8-8.6,3.1-8.6,7.9-8.6,7.6,3.2,7.6,8.3v1.2H858.8v.3a4,4,0,0,0,4.2,4.4,3.5,3.5,0,0,0,3.6-2.3Zm-11.3-4.9h7.7c-.1-2.4-1.6-4-3.8-4A3.9,3.9,0,0,0,858.9,152.9Z" style="fill:#398557"/><path d="M872.2,154.5c0-5.3,2.7-8.6,6.9-8.6a5.6,5.6,0,0,1,5.1,3.1h.1v-8.8h3.9v22.6h-3.8v-2.9h-.1a5.5,5.5,0,0,1-5.2,3.1C874.9,163,872.2,159.7,872.2,154.5Zm4,0c0,3.3,1.5,5.3,4.1,5.3s4-2,4-5.3-1.6-5.4-4-5.4S876.2,151.2,876.2,154.5Z" style="fill:#398557"/><path d="M893.9,167.6h-3.5c2.3-2.7,4.1-8.5,4.1-13.7s-1.8-11-4.1-13.7h3.5c3.2,3.8,4.6,8.2,4.6,13.7S897.1,163.8,893.9,167.6Z" style="fill:#398557"/><path d="M1223.2,210.2c6.8,0,10.7,4.1,10.7,11.2s-3.9,11.4-10.7,11.4H1215V210.2Zm-4.2,19.2h3.8c4.5,0,7-2.8,7-8s-2.5-7.8-7-7.8H1219Z" style="fill:#36393a"/><path d="M1237.2,232.8V210.2h3.5l11.1,15.8h.2V210.2h3.9v22.6h-3.5l-11.2-15.9h-.2v15.9Z" style="fill:#36393a"/><path d="M1262.8,226.5c.3,2,2.3,3.3,5.1,3.3s4.6-1.4,4.6-3.2-1.1-2.7-4.1-3.3l-2.4-.5c-4.5-.9-6.6-3-6.6-6.3s3.5-6.7,8.4-6.7,8.3,2.8,8.4,6.8h-3.9c-.2-2.1-2-3.4-4.6-3.4s-4.2,1.2-4.2,3.1,1.1,2.5,3.9,3.1l2.4.5c4.8,1,6.8,2.9,6.8,6.2s-3.4,7-8.8,7-8.7-2.5-8.9-6.6Z" style="fill:#36393a"/><path d="M1291.9,215.9c4.1,0,6.6,2.1,6.7,5.3H1295c-.1-1.5-1.3-2.5-3.1-2.5s-2.8.8-2.8,2,.7,1.7,2.4,2l2.8.7c3.4.7,4.7,2,4.7,4.5s-2.8,5.2-6.9,5.2-6.9-2.1-7.2-5.3h3.8c.3,1.6,1.4,2.4,3.4,2.4s3.1-.7,3.1-2-.6-1.5-2.4-1.9l-2.7-.6q-4.8-1-4.8-4.8C1285.3,217.9,1287.9,215.9,1291.9,215.9Z" style="fill:#36393a"/><path d="M1316.1,227.8c-.5,3.1-3.4,5.3-7.3,5.3s-8-3.3-8-8.6,3-8.6,7.8-8.6,7.7,3.2,7.7,8.3v1.2h-11.6v.3a4,4,0,0,0,4.2,4.4,3.6,3.6,0,0,0,3.6-2.3Zm-11.4-4.9h7.7a3.7,3.7,0,0,0-3.8-4C1306.4,218.9,1304.9,220.5,1304.7,222.9Z" style="fill:#36393a"/><path d="M1318.8,216.2h3.7v2.9h.1a3.9,3.9,0,0,1,3.9-3.2l1.3.2v3.5l-1.6-.2c-2.2,0-3.5,1.4-3.5,3.7v9.7h-3.9Z" style="fill:#36393a"/><path d="M1338.5,232.8h-4.3l-5.8-16.6h4.1l3.9,13h0l3.9-13h4Z" style="fill:#36393a"/><path d="M1360.3,227.8c-.5,3.1-3.4,5.3-7.4,5.3s-7.9-3.3-7.9-8.6,3-8.6,7.8-8.6,7.6,3.2,7.6,8.3v1.2h-11.6v.3a4.1,4.1,0,0,0,4.2,4.4,3.5,3.5,0,0,0,3.6-2.3Zm-11.4-4.9h7.7c-.1-2.4-1.6-4-3.8-4A3.9,3.9,0,0,0,1348.9,222.9Z" style="fill:#36393a"/><path d="M1362.9,216.2h3.8v2.9h0a4,4,0,0,1,4-3.2l1.2.2v3.5l-1.6-.2c-2.2,0-3.5,1.4-3.5,3.7v9.7h-3.9Z" style="fill:#36393a"/><path d="M111.7,209.8c4.6,0,7.7,2.8,7.7,6.4s-1.3,4.4-5.2,8.3l-5,4.9h10.5v3.3H103.9V230l7.9-7.8c3-2.9,3.6-4,3.6-5.7a3.4,3.4,0,0,0-3.7-3.5,4.1,4.1,0,0,0-4.3,3.9h-3.7C103.7,212.7,107,209.8,111.7,209.8Z" style="fill:#36393a"/><path d="M122.7,216.2h3.7V219h.1a5.3,5.3,0,0,1,5.2-3.1c3.6,0,5.7,2.3,5.7,6.2v10.7h-3.9v-10c0-2.3-1.1-3.6-3.3-3.6s-3.7,1.6-3.7,4v9.6h-3.8Z" style="fill:#36393a"/><path d="M139.8,224.5c0-5.3,2.7-8.6,6.9-8.6a5.4,5.4,0,0,1,5.1,3.1h.1v-8.8h3.9v22.6H152v-2.9h-.1a5.5,5.5,0,0,1-5.2,3.1C142.5,233,139.8,229.7,139.8,224.5Zm4,0c0,3.3,1.6,5.3,4.1,5.3s4-2,4-5.3-1.6-5.4-4-5.4S143.8,221.2,143.8,224.5Z" style="fill:#36393a"/><path d="M169.9,224.4a4.8,4.8,0,0,0,5.2,5.2c3.4,0,5.3-2.1,5.3-5.2V210.2h4v14.6c0,4.9-3.5,8.3-9.3,8.3s-9.2-3.4-9.2-8.3V210.2h4Z" style="fill:#36393a"/><path d="M194.3,215.9c4.1,0,6.6,2.1,6.7,5.3h-3.6c-.1-1.5-1.3-2.5-3.1-2.5s-2.8.8-2.8,2,.7,1.7,2.4,2l2.8.7c3.4.7,4.7,2,4.7,4.5s-2.9,5.2-6.9,5.2-6.9-2.1-7.2-5.3h3.8c.3,1.6,1.4,2.4,3.4,2.4s3-.7,3-2-.5-1.5-2.3-1.9l-2.7-.6q-4.8-1-4.8-4.8C187.7,217.9,190.3,215.9,194.3,215.9Z" style="fill:#36393a"/><path d="M218.5,227.8c-.5,3.1-3.4,5.3-7.3,5.3s-8-3.3-8-8.6,3-8.6,7.8-8.6,7.7,3.2,7.7,8.3v1.2H207.1v.3a4,4,0,0,0,4.2,4.4,3.6,3.6,0,0,0,3.6-2.3Zm-11.4-4.9h7.7a3.7,3.7,0,0,0-3.8-4C208.8,218.9,207.3,220.5,207.1,222.9Z" style="fill:#36393a"/><path d="M221.2,216.2h3.7v2.9h.1a3.9,3.9,0,0,1,3.9-3.2l1.3.2v3.5l-1.6-.2a3.4,3.4,0,0,0-3.6,3.7v9.7h-3.8Z" style="fill:#36393a"/><line x1="292" y1="87" x2="1153.6" y2="87" style="fill:none;stroke:#404242;stroke-miterlimit:10;stroke-width:5px"/><polygon points="1137 107.4 1133.6 103.8 1151.7 87 1133.6 70.2 1137 66.6 1159 87 1137 107.4" style="fill:#404242"/><line x1="1159" y1="176.5" x2="297.4" y2="176.5" style="fill:none;stroke:#398557;stroke-miterlimit:10;stroke-width:5px"/><polygon points="314 156.1 317.4 159.7 299.3 176.5 317.4 193.3 314 196.9 292 176.5 314 156.1" style="fill:#398557"/><line x1="166.4" y1="257.5" x2="166.5" y2="472.1" style="fill:none;stroke:#398557;stroke-miterlimit:10;stroke-width:5px"/><polygon points="146 455.5 149.7 452.1 166.5 470.2 183.3 452.1 186.9 455.5 166.5 477.5 146 455.5" style="fill:#398557"/></svg>