<?xml version="1.0" encoding="UTF-8" standalone="no"?>
<!-- Created with Inkscape (http://www.inkscape.org/) -->
<svg
   xmlns:svg="http://www.w3.org/2000/svg"
   xmlns="http://www.w3.org/2000/svg"
   version="1.0"
   width="256"
   height="256"
   id="svg2192">
  <defs
     id="defs2194" />
  <g
     id="layer1">
    <path
       d="M 149.875,108.35185 L 140.5,98.976852 C 140.49991,95.461328 141.73689,92.889716 144.21094,91.262009 C 146.6848,89.634511 153.42307,88.430085 164.42578,87.648727 C 173.93086,88.169668 180.00182,88.918366 182.63867,89.894821 C 185.27525,90.871489 186.59361,92.238675 186.59375,93.996384 C 186.59361,95.038151 186.07278,96.372785 185.03125,98.00029 L 179.17188,103.85966 C 176.30716,106.85455 174.09362,110.43527 172.53125,114.60185 L 137.375,185.30498 C 139.26293,199.36747 140.72777,208.18908 141.76953,211.76982 C 142.8111,215.35053 143.57608,218.47553 144.06445,221.14482 C 144.55264,223.81406 144.79678,225.86484 144.79688,227.29716 C 144.79678,231.72421 141.80199,235.43515 135.8125,238.42998 L 107.10156,252.68779 C 105.86453,253.07836 104.79031,253.27367 103.87891,253.27373 C 102.90229,253.27367 102.12104,253.15974 101.53516,252.93193 C 100.94917,252.70401 100.46089,252.36221 100.07031,251.90654 C 99.549428,251.32055 99.207632,250.83227 99.044922,250.4417 C 98.882111,250.05102 98.800731,249.69294 98.800781,249.36748 C 98.800731,248.78149 98.996043,248.06534 99.386719,247.21904 C 99.777293,246.37264 100.91661,245.16821 102.80469,243.60576 C 107.75255,240.2203 110.84499,237.92538 112.08203,236.72099 C 113.31895,235.51653 114.65358,233.93775 116.08594,231.98466 C 117.51816,230.03151 118.23431,226.8414 118.23438,222.41435 L 118.23438,195.46123 C 118.23431,185.82582 115.69525,177.29718 110.61719,169.87529 C 105.53901,162.45345 100.91661,155.16179 96.75,148.00029 C 92.583289,140.83889 89.067668,132.83108 86.203125,123.97685 C 85.682255,121.89359 84.998662,119.54985 84.152344,116.9456 C 83.305955,114.34152 81.515592,111.47694 78.78125,108.35185 L 69.40625,98.976852 C 69.406229,95.461328 70.643207,92.889716 73.117188,91.262009 C 75.591119,89.634511 82.329393,88.430085 93.332031,87.648727 C 102.83719,88.169668 108.90814,88.918366 111.54492,89.894821 C 114.18158,90.871489 115.49993,92.238675 115.5,93.996384 C 115.49993,95.038151 114.9791,96.372785 113.9375,98.00029 L 108.07813,103.85966 C 105.21349,106.85455 103.39057,110.46782 102.60938,114.69951 C 102.60932,116.4574 103.71609,120.4613 105.92969,126.71123 C 108.14317,132.96129 111.8541,139.34149 117.0625,145.85185 C 122.27076,152.36231 126.95826,159.78418 131.125,168.11748 C 135.29158,161.86751 142.71345,147.93523 153.39063,126.3206 C 154.17177,123.71651 154.46474,120.85193 154.26953,117.72685 C 154.07411,114.60193 152.60927,111.47694 149.875,108.35185 L 149.875,108.35185 z "
       id="text2200" />
  </g>
</svg>
